<?xml version="1.0" standalone="no"?>
<!DOCTYPE svg PUBLIC "-//W3C//DTD SVG 20010904//EN"
 "http://www.w3.org/TR/2001/REC-SVG-20010904/DTD/svg10.dtd">
<svg version="1.0" xmlns="http://www.w3.org/2000/svg"
 width="700.000000pt" height="700.000000pt" viewBox="0 0 700.000000 700.000000"
 preserveAspectRatio="xMidYMid meet">
<metadata>
Created by potrace 1.11, written by Peter Selinger 2001-2013
</metadata>
<g transform="translate(0.000000,700.000000) scale(0.100000,-0.100000)"
fill="#000000" stroke="none">
<path d="M1718 6915 c-2 -1 -50 -5 -108 -8 -294 -16 -513 -64 -695 -153 -134
-66 -256 -155 -381 -279 -262 -259 -384 -523 -429 -930 -17 -149 -20 -474 -20
-2045 0 -1560 4 -1945 19 -2040 2 -14 7 -50 11 -80 13 -111 53 -282 84 -355
95 -223 169 -334 331 -495 159 -159 305 -256 495 -330 105 -41 208 -64 425
-95 114 -16 470 -20 2045 -20 1556 0 1943 4 2050 20 17 2 48 6 70 9 259 33
468 111 652 242 351 252 555 581 613 989 6 44 13 91 16 105 15 92 19 485 19
2050 0 1565 -4 1948 -19 2040 -3 14 -7 49 -10 79 -4 30 -9 64 -11 75 -3 12 -7
32 -9 46 -16 96 -54 215 -96 306 -16 36 -30 67 -30 70 0 14 -94 152 -156 229
-137 171 -307 312 -481 399 -123 62 -284 113 -408 131 -22 3 -51 8 -65 10 -14
2 -56 7 -95 11 -38 4 -86 9 -105 11 -36 5 -3707 13 -3712 8z"/>
</g>
</svg>
