<?xml version="1.0" standalone="no"?>
<!DOCTYPE svg PUBLIC "-//W3C//DTD SVG 20010904//EN"
 "http://www.w3.org/TR/2001/REC-SVG-20010904/DTD/svg10.dtd">
<svg version="1.0" xmlns="http://www.w3.org/2000/svg"
 width="814.000000pt" height="814.000000pt" viewBox="0 0 814.000000 814.000000"
 preserveAspectRatio="xMidYMid meet">
<metadata>
Created by potrace 1.11, written by Peter Selinger 2001-2013
</metadata>
<g transform="translate(0.000000,814.000000) scale(0.100000,-0.100000)"
fill="#000000" stroke="none">
<path d="M7178 6855 c-2 -2 -30 -8 -63 -14 -104 -18 -118 -21 -190 -42 -168
-50 -389 -153 -520 -242 -154 -104 -160 -109 -276 -207 -69 -58 -181 -163
-233 -219 -23 -24 -61 -65 -86 -91 -25 -26 -61 -66 -79 -88 -18 -23 -40 -50
-49 -61 -39 -45 -53 -62 -100 -122 -186 -240 -358 -525 -457 -759 -54 -128
-121 -342 -131 -419 -1 -13 -7 -28 -13 -34 -12 -12 -2337 -15 -2349 -3 -6 7
43 164 75 236 44 100 123 254 165 323 26 43 48 81 48 83 0 3 28 46 62 97 35
51 67 99 73 108 17 27 78 114 85 119 3 3 17 21 30 40 13 19 27 37 30 40 3 3
23 27 45 55 22 27 47 57 55 66 8 8 51 55 95 104 181 201 353 354 545 485 70
48 97 65 120 76 8 4 17 10 20 14 8 9 282 140 295 140 2 0 14 4 27 9 13 5 26 9
30 10 4 1 26 8 49 16 23 9 51 17 63 19 12 3 46 10 76 16 172 35 403 35 545 1
22 -5 51 -12 65 -14 23 -5 237 -71 270 -84 8 -4 19 -7 24 -7 5 -1 11 -7 14
-15 3 -8 0 -11 -6 -7 -6 3 -13 2 -16 -3 -3 -5 -22 -12 -42 -16 -20 -3 -44 -10
-53 -15 -9 -4 -59 -23 -111 -41 -294 -100 -628 -250 -784 -353 -102 -67 -139
-98 -252 -211 -226 -227 -324 -444 -319 -706 3 -111 17 -186 57 -289 30 -79
115 -247 129 -255 17 -11 4 25 -47 132 -51 108 -81 181 -89 220 -26 124 -31
180 -23 278 16 212 116 409 305 600 106 108 280 245 312 245 5 0 11 4 13 9 3
10 195 107 278 141 30 12 69 28 85 35 60 26 215 85 227 87 7 2 15 5 18 8 3 3
21 11 40 17 19 6 87 29 150 51 63 22 144 48 180 58 104 27 101 36 -16 48 -45
4 -145 32 -199 55 -31 14 -164 50 -224 61 -142 27 -386 29 -471 5 -8 -2 -31
-6 -50 -9 -252 -38 -592 -206 -875 -433 -188 -151 -483 -459 -610 -637 -11
-16 -25 -34 -31 -40 -19 -20 -204 -295 -204 -302 0 -4 -6 -15 -14 -23 -31 -35
-159 -278 -210 -401 -18 -41 -45 -114 -61 -162 l-29 -88 -70 -1 c-94 -1 -1946
-1 -2059 0 l-89 1 7 30 c11 51 93 259 125 318 16 30 30 59 30 63 0 13 143 254
213 359 230 344 552 699 802 885 22 16 42 32 45 36 14 15 146 103 230 152 118
68 201 106 331 152 262 91 465 110 719 69 49 -8 191 -44 215 -54 11 -5 52 -19
90 -31 39 -12 77 -24 85 -27 8 -3 18 -4 23 -4 4 1 7 -1 7 -6 0 -4 -35 -18 -78
-31 -69 -21 -203 -69 -257 -91 -11 -4 -81 -31 -155 -60 -185 -71 -199 -77
-330 -143 -93 -47 -228 -127 -285 -169 -64 -47 -205 -185 -261 -254 -21 -27
-42 -50 -46 -52 -5 -2 -8 -10 -8 -17 0 -7 -4 -15 -8 -17 -9 -4 -54 -79 -92
-156 -90 -182 -100 -461 -23 -642 43 -100 128 -270 136 -270 12 0 1 33 -51
140 -39 83 -95 220 -93 228 1 1 1 3 0 5 -18 58 -29 282 -16 304 3 5 8 27 11
49 15 95 86 250 168 362 68 94 255 272 356 339 95 63 256 149 372 198 111 47
123 52 215 87 50 19 99 39 110 43 11 4 25 9 30 11 6 2 67 23 136 48 69 24 162
54 207 67 77 21 105 38 65 40 -72 3 -134 16 -235 50 -229 77 -331 94 -543 93
-117 0 -173 -6 -255 -23 -58 -13 -111 -28 -117 -33 -7 -6 -13 -8 -13 -4 0 15
-259 -88 -353 -141 -33 -18 -63 -33 -68 -33 -5 0 -9 -4 -9 -10 0 -5 -5 -10
-11 -10 -16 0 -167 -102 -265 -180 -242 -192 -461 -421 -673 -705 -82 -110
-241 -349 -241 -363 0 -6 -3 -12 -7 -14 -19 -8 -162 -299 -203 -413 -17 -49
-36 -99 -40 -110 -5 -11 -12 -30 -15 -42 -5 -20 -13 -23 -58 -24 -108 -2 -272
-6 -279 -8 -14 -2 -9 -89 5 -93 6 -2 1835 -4 4062 -4 l4050 1 3 50 3 51 -1538
-1 c-846 0 -1550 2 -1565 4 -24 3 -27 6 -22 35 3 17 10 45 15 62 5 17 11 40
14 52 8 44 69 230 93 282 61 137 129 272 190 374 37 61 69 113 72 116 3 3 21
29 39 58 19 30 39 59 45 65 6 7 20 25 30 42 23 35 14 23 118 155 106 133 108
136 198 233 97 105 212 220 281 280 101 91 374 287 397 287 6 0 12 3 14 8 4
10 180 96 268 131 68 26 142 50 179 57 7 1 34 8 60 14 271 65 542 40 859 -79
56 -21 57 -21 72 -21 6 0 10 -4 10 -9 0 -4 -42 -22 -92 -39 -110 -36 -330
-117 -375 -137 -17 -8 -38 -15 -46 -15 -9 0 -18 -4 -21 -9 -3 -5 -17 -12 -31
-15 -51 -13 -269 -116 -353 -167 -35 -21 -66 -39 -68 -39 -6 0 -105 -71 -144
-103 -279 -232 -438 -501 -453 -762 -3 -57 6 -177 16 -220 3 -11 8 -33 12 -50
14 -63 117 -289 149 -330 16 -19 16 -19 10 7 -3 15 -28 73 -55 128 -57 117
-84 198 -99 295 -13 78 -11 211 2 265 5 19 10 44 12 55 22 126 139 317 285
465 229 231 423 338 1016 558 112 41 288 97 343 108 18 3 27 12 20 19 -3 3
-33 8 -67 11 -34 3 -115 22 -180 44 -121 40 -246 74 -316 85 -43 8 -351 16
-357 10z"/>
<path d="M595 3862 c-20 -3 -20 -10 -18 -674 1 -369 5 -673 8 -676 3 -3 45 -6
94 -6 82 -1 90 1 93 19 2 11 3 257 3 547 0 291 3 528 6 528 4 0 14 -17 22 -37
8 -21 50 -110 92 -198 144 -298 197 -410 222 -465 14 -30 63 -131 108 -225
l82 -170 119 2 c65 0 122 2 125 2 9 1 6 1338 -3 1347 -8 8 -176 9 -184 1 -3
-2 -5 -248 -6 -546 0 -297 -2 -541 -3 -541 -2 0 -21 37 -43 83 -76 154 -222
459 -222 462 0 1 -34 74 -76 161 -42 88 -100 210 -129 272 l-54 112 -50 1
c-28 1 -77 2 -108 3 -32 0 -67 0 -78 -2z"/>
<path d="M2152 3535 c-107 -25 -215 -104 -275 -202 -73 -118 -100 -313 -64
-473 2 -8 7 -31 11 -50 13 -58 72 -153 124 -202 93 -87 202 -126 353 -126 67
0 105 5 233 33 41 9 116 37 117 43 4 23 4 145 -1 151 -3 5 -25 -1 -50 -13 -25
-12 -49 -23 -55 -25 -5 -2 -21 -7 -34 -12 -84 -32 -224 -43 -304 -25 -152 36
-220 135 -226 326 l-2 55 352 0 c193 0 356 3 361 6 11 7 12 98 2 159 -8 48
-43 137 -72 185 -48 77 -150 153 -228 171 -53 12 -189 11 -242 -1z m226 -150
c53 -22 115 -91 136 -152 26 -77 24 -83 -36 -84 -183 -2 -490 0 -494 4 -3 2 5
30 17 61 21 57 78 126 130 159 61 37 171 43 247 12z"/>
<path d="M3341 3539 c-57 -11 -122 -50 -160 -96 -26 -31 -31 -34 -32 -18 -2
28 -6 78 -8 90 -1 12 -145 14 -156 3 -8 -8 -9 -1388 -1 -1396 8 -7 143 -10
154 -3 4 3 8 107 9 231 1 124 2 236 2 249 1 23 3 22 37 -18 20 -23 59 -54 88
-68 45 -24 63 -27 151 -27 95 -1 103 1 163 33 149 81 219 233 221 482 2 194
-33 322 -112 422 -79 97 -217 143 -356 116z m158 -158 c88 -46 132 -154 136
-341 6 -231 -51 -367 -171 -407 -36 -13 -118 -10 -155 5 -99 40 -154 162 -157
352 -2 86 6 178 22 235 16 59 70 132 116 156 64 32 145 32 209 0z"/>
<path d="M4357 3544 c-2 -2 -18 -6 -37 -9 -19 -3 -53 -11 -75 -17 -22 -6 -45
-12 -51 -14 -7 -1 -25 -8 -40 -16 -28 -13 -29 -16 -30 -86 -1 -40 2 -74 6 -77
4 -3 33 6 63 20 119 52 279 75 370 52 101 -26 146 -79 155 -183 l5 -64 -59 0
c-357 -3 -445 -25 -541 -134 -46 -53 -65 -106 -69 -197 -6 -147 52 -249 176
-307 44 -21 73 -27 141 -29 140 -4 241 34 313 119 39 45 38 47 39 -44 0 -27 3
-49 6 -49 27 -5 154 -2 157 3 6 9 5 644 -1 717 -6 84 -34 147 -88 202 -58 59
-108 86 -194 104 -53 11 -237 17 -246 9z m368 -538 c-2 -6 -6 -45 -9 -87 -13
-185 -131 -303 -297 -295 -70 4 -124 23 -151 52 -27 31 -50 94 -50 138 1 99
56 161 171 191 58 14 340 15 336 1z"/>
<path d="M6578 3535 c-26 -6 -53 -17 -61 -23 -8 -7 -16 -10 -18 -8 -3 3 -22
-12 -44 -32 -118 -108 -166 -240 -166 -451 0 -182 41 -310 129 -407 51 -57 90
-81 158 -100 139 -38 284 5 347 102 12 18 25 34 28 34 9 0 1 -166 -11 -225
-13 -63 -38 -105 -82 -137 -54 -39 -79 -46 -173 -43 -70 1 -107 8 -165 30 -78
28 -113 35 -117 23 -2 -5 -3 -37 -3 -73 0 -51 4 -66 18 -74 38 -20 182 -42
277 -42 259 0 403 133 421 390 3 42 6 288 7 546 l2 470 -86 3 -85 3 2 -56 c1
-30 -1 -55 -4 -55 -3 0 -20 17 -37 38 -18 21 -57 51 -86 66 -43 24 -66 30
-128 31 -42 1 -97 -3 -123 -10z m230 -149 c94 -49 145 -176 144 -361 -2 -262
-86 -391 -250 -384 -122 6 -192 81 -229 244 -2 11 -6 65 -7 120 -4 109 13 215
44 276 25 48 92 105 138 116 51 13 125 7 160 -11z"/>
<path d="M5240 3522 c-13 -2 -15 -45 -13 -318 1 -173 4 -349 7 -392 18 -231
131 -344 333 -329 97 7 168 41 227 110 l45 51 -2 -57 c-2 -32 0 -63 4 -69 8
-12 158 -20 160 -8 1 3 2 231 3 507 1 329 -2 504 -9 506 -15 5 -145 1 -151 -5
-3 -3 -7 -158 -8 -344 -3 -319 -5 -342 -25 -396 -23 -59 -79 -120 -128 -139
-42 -16 -147 -13 -181 5 -35 18 -75 67 -89 111 -11 33 -13 79 -17 485 -2 151
-4 277 -5 280 -1 6 -125 8 -151 2z"/>
<path d="M1483 1930 c-2 -25 8 -31 57 -32 36 0 40 -3 41 -27 0 -14 2 -102 3
-196 3 -210 13 -238 98 -253 57 -11 93 -2 93 23 0 17 -9 21 -53 26 -29 4 -55
9 -58 12 -10 10 -16 98 -19 272 -1 99 -3 183 -4 186 0 4 -36 7 -79 8 -71 1
-78 0 -79 -19z"/>
<path d="M2114 1941 c-2 -2 -4 -44 -4 -93 l0 -89 -30 23 c-62 45 -151 23 -193
-50 -41 -69 -30 -223 20 -276 46 -50 121 -61 166 -26 30 24 37 25 37 6 0 -33
60 -25 61 8 0 25 0 488 0 498 -1 8 -49 7 -57 -1z m-46 -208 c26 -22 40 -76 37
-134 -2 -24 -3 -52 -4 -61 -2 -28 -47 -73 -76 -76 -72 -6 -103 58 -96 200 0
14 13 40 27 57 30 36 79 42 112 14z"/>
<path d="M2452 1936 c-13 -22 -11 -66 4 -67 50 -5 49 -5 48 35 0 33 -3 40 -22
41 -13 1 -26 -3 -30 -9z"/>
<path d="M609 1902 c0 -15 -2 -126 -2 -246 -2 -234 0 -248 46 -239 24 5 24 6
23 116 -1 62 2 119 5 127 7 15 23 16 159 11 l25 -1 0 -121 c-1 -129 5 -143 50
-130 20 6 20 14 19 241 -1 129 -2 243 -3 252 -1 16 -5 16 -61 9 -3 -1 -5 -38
-4 -84 0 -45 -2 -88 -4 -94 -3 -9 -31 -13 -93 -13 -78 0 -89 2 -90 18 -1 9 -2
53 -2 97 l-2 80 -32 2 c-29 1 -33 -2 -34 -25z"/>
<path d="M4381 1674 l1 -252 29 -4 c17 -3 32 -2 34 2 2 3 4 47 4 98 0 72 4 98
18 117 10 13 23 25 30 25 7 0 47 -54 90 -119 77 -119 90 -131 139 -123 19 3
11 19 -78 152 l-100 148 62 65 c90 96 120 130 120 139 0 4 -13 8 -29 8 -24 0
-49 -20 -140 -112 l-111 -113 -1 80 c-1 44 0 95 1 113 2 32 0 33 -34 30 l-35
-2 0 -252z"/>
<path d="M4893 1905 c-120 -72 -136 -343 -27 -453 45 -44 152 -54 221 -21 47
23 45 16 45 144 0 19 -1 50 -1 69 l-1 34 -70 -1 c-70 -1 -71 -1 -68 -26 2 -21
9 -27 38 -31 l35 -5 0 -59 c0 -32 -5 -66 -11 -74 -15 -21 -94 -19 -127 3 -82
53 -82 317 0 371 37 24 101 25 141 3 50 -28 50 -28 43 33 -2 18 -65 38 -118
38 -44 0 -68 -6 -100 -25z"/>
<path d="M1113 1792 c-57 -30 -85 -89 -85 -182 -1 -127 57 -200 157 -200 108
0 165 73 162 205 -3 83 -29 141 -76 169 -40 23 -120 27 -158 8z m130 -62 c23
-19 38 -63 42 -125 2 -32 -21 -103 -39 -121 -9 -9 -33 -18 -53 -19 -29 -3 -41
2 -64 25 -29 28 -31 38 -32 115 0 79 3 92 28 119 30 32 81 35 118 6z"/>
<path d="M2856 1799 c-16 -4 -39 -17 -51 -29 l-22 -20 1 22 c1 18 -5 24 -29
26 l-31 3 2 -183 c0 -101 2 -188 3 -193 0 -6 13 -10 29 -9 27 1 27 1 29 75 3
186 6 209 25 231 20 24 58 33 94 24 33 -9 43 -54 45 -198 1 -111 3 -127 19
-131 42 -11 46 4 43 158 -3 155 -13 193 -55 216 -28 15 -65 18 -102 8z"/>
<path d="M3226 1800 c-64 -19 -98 -79 -102 -180 -4 -89 28 -161 83 -187 48
-24 95 -21 130 7 25 20 28 20 31 5 7 -33 -9 -82 -33 -105 -21 -20 -31 -22 -77
-17 -29 4 -64 9 -77 13 -22 7 -23 5 -17 -22 4 -16 9 -31 11 -33 3 -2 35 -6 73
-9 86 -6 130 12 160 67 21 36 22 52 22 249 l0 210 -26 -3 c-15 -1 -30 -8 -34
-15 -6 -9 -13 -9 -31 3 -31 21 -77 27 -113 17z m115 -81 c25 -35 33 -127 17
-186 -24 -91 -143 -78 -164 17 -23 111 15 200 87 200 31 0 42 -6 60 -31z"/>
<path d="M3675 1803 c-46 -9 -77 -28 -91 -55 -16 -31 -16 -88 0 -111 15 -19
63 -43 106 -52 85 -18 113 -60 67 -103 -18 -17 -32 -20 -72 -18 -28 2 -63 9
-79 15 -22 9 -31 9 -37 0 -23 -38 27 -67 117 -68 62 -1 118 20 139 53 32 48
15 130 -32 154 -10 5 -43 14 -74 21 -32 7 -65 21 -75 32 -17 18 -17 23 -3 47
23 41 71 46 165 17 18 -6 21 -3 20 19 -1 14 -4 28 -8 31 -12 13 -107 25 -143
18z"/>
<path d="M2346 1785 c-8 -22 9 -34 52 -36 23 -2 42 -5 43 -8 0 -4 1 -66 2
-139 l2 -132 -25 -1 c-14 0 -42 -1 -62 -1 -33 0 -38 -4 -38 -24 0 -16 6 -24
18 -25 21 -1 263 -1 278 0 7 1 14 10 17 20 6 23 -17 31 -80 27 -31 -2 -43 2
-45 13 -2 9 -4 82 -3 164 0 81 -2 148 -5 148 -3 1 -37 3 -77 4 -49 2 -73 -2
-77 -10z"/>
</g>
</svg>
