<?xml version="1.0" encoding="UTF-8"?>
<svg width="107.76mm" height="74.068mm" version="1.1" viewBox="0 0 107.76 74.068" xmlns="http://www.w3.org/2000/svg" xmlns:cc="http://creativecommons.org/ns#" xmlns:dc="http://purl.org/dc/elements/1.1/" xmlns:rdf="http://www.w3.org/1999/02/22-rdf-syntax-ns#">
 <metadata>
  <rdf:RDF>
   <cc:Work rdf:about="">
    <dc:format>image/svg+xml</dc:format>
    <dc:type rdf:resource="http://purl.org/dc/dcmitype/StillImage"/>
    <dc:title/>
   </cc:Work>
  </rdf:RDF>
 </metadata>
 <g transform="translate(-51.953 -111.13)">
  <path d="m94.209 185.1-0.43593-0.0962-0.0172-0.39233c-9e-3 -0.21579-4e-3 -0.39234 0.01119-0.39234 0.01561 0 0.26262 0.0785 0.54887 0.17437 1.086 0.36383 1.8529 0.14048 2.074-0.60396 0.0472-0.15894 0.0858-0.51024 0.0858-0.78067v-0.49168l-0.23155 0.26305c-0.12979 0.14745-0.34051 0.30672-0.47951 0.36243-0.2968 0.11895-0.91847 0.13436-1.2399 0.0307-0.51322-0.16544-0.96665-0.69519-1.1944-1.3954-0.16371-0.50337-0.17757-1.6039-0.0267-2.1215 0.29802-1.0227 0.91-1.5467 1.8062-1.5467 0.52292 0 0.84763 0.12577 1.1171 0.43269 0.10292 0.11722 0.1995 0.21313 0.21462 0.21313 0.01511 0 0.0355-0.11116 0.0454-0.24702l0.01791-0.24702 0.39497-0.0172 0.39498-0.0173-0.0348 5.5562-0.13924 0.29062c-0.28779 0.60069-0.6317 0.90406-1.1949 1.054-0.38938 0.1037-1.1783 0.0909-1.7168-0.0279zm1.5607-2.6201c0.50275-0.25648 0.73166-0.89024 0.6914-1.9142-0.0322-0.81803-0.13946-1.1893-0.42664-1.4765-0.35275-0.35275-1.0091-0.39467-1.4202-0.0907-0.69828 0.51626-0.74821 2.7068-0.0756 3.3146 0.31034 0.28039 0.86191 0.35514 1.231 0.16683zm-28.53 0.86276c-1.155-0.12678-1.81-1.0592-1.8134-2.5818-3e-3 -1.3978 0.47699-2.2722 1.417-2.5808 0.30752-0.10094 1.1861-0.0876 1.4988 0.0227 0.99968 0.35271 1.4805 1.4499 1.3335 3.043-0.0733 0.79385-0.31679 1.3188-0.78559 1.6935-0.41711 0.33333-0.9972 0.47513-1.6504 0.40342zm0.8713-0.80064c0.32076-0.17202 0.50907-0.45586 0.63869-0.96268 0.14612-0.57133 0.14856-1.0917 8e-3 -1.6796-0.17843-0.74562-0.55723-1.0943-1.1888-1.0943-0.55327 0-0.8487 0.19821-1.0964 0.73558-0.12119 0.26293-0.13361 0.37367-0.13361 1.1908 0 0.81915 0.0123 0.92809 0.13547 1.2003 0.23168 0.51207 0.54165 0.71682 1.086 0.71737 0.23013 0 0.41837-0.0365 0.55071-0.10748zm32.288 0.80237c-0.46105-0.0465-1.2096-0.2308-1.2633-0.31106-0.0633-0.0946-0.0535-0.71978 0.01191-0.76023 0.031-0.0192 0.13776 7e-3 0.23718 0.0586 0.61685 0.31899 1.684 0.44709 2.0604 0.24734 0.42379-0.22487 0.60033-0.65943 0.41417-1.0194-0.11603-0.22437-0.54444-0.43339-1.1407-0.55654-0.87874-0.18148-1.2689-0.40002-1.4581-0.81673-0.14422-0.31759-0.14556-0.91378-3e-3 -1.2273 0.15341-0.33683 0.52446-0.6464 0.90866-0.75809 0.48374-0.14063 1.3842-0.12319 1.9248 0.0373l0.42929 0.12744v0.7904l-0.32039-0.14169c-0.60253-0.26646-1.387-0.31366-1.8699-0.11251-0.33511 0.13958-0.46957 0.62143-0.26841 0.96195 0.12077 0.20445 0.33976 0.29549 1.1573 0.48112 0.34816 0.0791 0.69988 0.16971 0.7816 0.20146 0.23305 0.0905 0.51432 0.3536 0.63863 0.59727 0.16117 0.31591 0.15645 0.95156-0.01 1.305-0.30947 0.65838-1.1675 1.003-2.2306 0.89575zm17.292-3e-3c-1.5294-0.16754-2.3648-1.4178-2.3454-3.5105 8e-3 -0.84711 0.12456-1.4237 0.40373-1.9944 0.25007-0.51114 0.47843-0.78246 0.86641-1.0293 0.49958-0.31788 0.82664-0.39419 1.5619-0.36445 0.58579 0.0237 0.68126 0.0437 1.0127 0.21265 0.20127 0.10257 0.37911 0.2208 0.3952 0.26273 0.0161 0.0419 0.0214 0.25416 0.0119 0.47161l-0.0174 0.39537-0.18382-0.155c-0.1011-0.0852-0.3365-0.22596-0.52311-0.31269-0.28586-0.13286-0.4171-0.15757-0.83334-0.1569-0.53955 7.9e-4 -0.71022 0.0618-1.0779 0.38461-0.51688 0.45382-0.77103 1.5604-0.6652 2.8961 0.0894 1.1288 0.41341 1.7686 1.0401 2.0544 0.36807 0.16783 1.0456 0.17209 1.3714 9e-3l0.23249-0.11663 0.016-0.91269 0.016-0.91268-0.96197-0.0338-0.0346-0.72654h1.8655v2.892l-0.30515 0.20892c-0.53284 0.3648-1.1596 0.51377-1.8454 0.43864zm-40.018-0.13371c-0.30419-0.13916-0.70778-0.53117-0.87017-0.84519-0.40993-0.79273-0.42419-2.4223-0.0281-3.2084 0.35946-0.71336 0.79142-0.9958 1.5724-1.0281 0.44609-0.0184 0.53174-5e-3 0.79758 0.13026 0.1638 0.083 0.35578 0.22932 0.42662 0.32513 0.0709 0.0958 0.15004 0.17421 0.176 0.17421 0.02601 0 0.0472-0.56234 0.0472-1.2497v-1.2497h0.81373v6.9748h-0.81373v-0.26155c0-0.14386-0.01701-0.26156-0.0377-0.26156s-0.12907 0.0941-0.24072 0.20902c-0.29414 0.30286-0.63504 0.43102-1.1359 0.42699-0.30521-2e-3 -0.49427-0.0389-0.7072-0.13631zm1.205-0.58423c0.23362-0.0491 0.55063-0.35435 0.68812-0.66249 0.25029-0.56095 0.25417-1.9149 7e-3 -2.4618-0.16211-0.35877-0.45658-0.61663-0.76897-0.67335-0.66456-0.12068-1.1127 0.16936-1.3363 0.86496-0.11276 0.35067-0.12512 0.49101-0.10309 1.1702 0.0209 0.64399 0.0473 0.8223 0.15943 1.0773 0.1423 0.32356 0.4426 0.63344 0.65842 0.67942 0.35085 0.0748 0.36677 0.0749 0.69535 6e-3zm-19.006-2.749 0.015-3.3566 0.90091-0.034v2.6204h2.4971l0.0312-2.5864h0.87185l0.03 6.7132h-0.93092v-3.3712h-2.4993v3.3712h-0.93092zm13.921 3.2737c-0.35099-0.12525-0.60413-0.35754-0.78004-0.71579l-0.16435-0.33469-0.0582-5.2311-1.3078-0.0329v-0.63817l2.1215 0.0317 0.0291 2.8771c0.0362 3.5818-0.0303 3.3753 1.1044 3.4293l0.6103 0.0291 0.0348 0.66842-0.68585-3e-3c-0.41922-2e-3 -0.77063-0.0328-0.90393-0.0804zm8.7913-0.23675v-0.31968h1.6275v-3.716l-1.2496-0.033-0.0176-0.30515-0.01759-0.30515h2.0985v4.3561l1.6565 0.0322 0.0176 0.30515 0.01759 0.30515h-4.1328zm5.3474-2.2087v-2.5284h0.37159c0.42079 0 0.44214 0.0217 0.44214 0.44886v0.26499l0.23031-0.26164c0.31731-0.36049 0.69829-0.51679 1.2596-0.51679 0.72619 0 1.1006 0.25252 1.3657 0.921 0.12719 0.32077 0.13381 0.41784 0.15458 2.2677l0.0217 1.9326h-0.81448l-0.01889-1.8164c-0.01879-1.8033-0.02-1.8185-0.16422-2.107-0.19805-0.3961-0.42271-0.50959-0.94326-0.47649-0.47571 0.0302-0.72098 0.1908-0.92528 0.60569-0.13297 0.27004-0.13723 0.32598-0.15509 2.0359l-0.01839 1.7582h-0.80606zm21.971-0.84279v-3.3712h0.87186v1.487c0 0.82912 0.0226 1.4784 0.051 1.4676 0.0281-0.0107 0.41213-0.39863 0.8535-0.86216 0.44138-0.46354 1.073-1.124 1.4036-1.4676l0.60112-0.62483h0.46345c0.29315 0 0.46343 0.0231 0.46343 0.0628 0 0.0345-0.56234 0.651-1.2496 1.3699-0.6873 0.71893-1.2497 1.3272-1.2497 1.3517s0.17778 0.30387 0.39509 0.62081c1.0112 1.4748 2.2205 3.2741 2.2205 3.304 0 0.0182-0.23563 0.0331-0.52361 0.0331h-0.52361l-0.50179-0.77013c-0.27599-0.42358-0.73796-1.1363-1.0266-1.5839-0.28863-0.44755-0.56172-0.85296-0.60685-0.90092-0.0721-0.0766-0.12395-0.042-0.42599 0.28402l-0.34393 0.37121v2.5997h-0.87186zm-25.666-2.6355c-0.01651-0.0429-0.0222-0.27182-0.0127-0.50858l0.0173-0.43049 0.78466-0.0344v1.0515h-0.37962c-0.26419 0-0.38874-0.0238-0.4096-0.0781zm54.757-3.2051c-0.54427-0.0771-1.2992-0.24008-1.9471-0.42039l-0.3778-0.10514-0.0158-1.089c-9e-3 -0.59895-4e-3 -1.089 9e-3 -1.089 0.0138 0 0.24013 0.092 0.50282 0.20444 0.68772 0.29436 1.3706 0.52798 1.9876 0.68005 0.7769 0.19145 2.0943 0.19171 2.7025 5.3e-4 0.51786-0.16279 0.78406-0.31088 1.1114-0.6183 0.72023-0.67645 0.98341-1.5639 1.0388-3.5026 0.0375-1.3114 0.0151-1.4335-0.19492-1.063-0.41174 0.72653-1.0428 1.3006-1.7483 1.5903-0.20791 0.0854-0.65555 0.19816-0.99478 0.25063-0.53052 0.0821-0.7062 0.0855-1.2562 0.0243-0.67173-0.0747-1.3346-0.26857-1.7766-0.51965-0.85305-0.48454-1.654-1.3876-2.0975-2.365-0.58025-1.2787-0.77166-2.2807-0.77166-4.0396 0-1.7594 0.19189-2.7635 0.77199-4.0396 0.36368-0.80003 1.0732-1.679 1.7052-2.1124 0.81353-0.55786 1.5947-0.77896 2.746-0.77719 0.85811 1e-3 1.4011 0.11433 1.9986 0.41598 0.43147 0.2178 1.0678 0.80728 1.3435 1.2444 0.11188 0.17747 0.22304 0.32392 0.24702 0.32546 0.024 2e-3 0.0436-0.36344 0.0436-0.81099v-0.81373h2.2132l-0.0192 6.815c-0.0174 6.1717-0.0287 6.8671-0.12029 7.3672-0.35021 1.913-1.1128 3.1187-2.4429 3.8626-0.45942 0.25692-1.2942 0.5294-1.8654 0.60884-0.59085 0.0822-2.1366 0.0688-2.7931-0.0242zm2.8771-7.12c1.056-0.41879 1.7493-1.5316 2.0017-3.2129 0.22955-1.5291 0.14759-3.2276-0.2138-4.4313-0.4639-1.545-1.4719-2.3807-2.8646-2.3747-1.4861 6e-3 -2.5384 0.8892-3.0133 2.528-0.2232 0.77021-0.34834 1.9611-0.30759 2.9273 0.1151 2.7296 0.91965 4.2034 2.5376 4.6485 0.46393 0.12763 1.4359 0.0832 1.86-0.0849zm-50.529 7.0514c-0.0213-0.0213-0.0388-4.2193-0.0388-9.3288v-9.2901h2.2087v0.77498c0 0.42624 0.0164 0.79139 0.0365 0.81145 0.02011 0.02 0.10507-0.064 0.18891-0.18674 0.86737-1.2701 2.2289-1.8535 3.9473-1.6915 2.3639 0.22293 3.8797 1.8388 4.4991 4.7963 0.12201 0.58253 0.13377 0.78661 0.1323 2.2959-1e-3 1.4974-0.0142 1.7152-0.13292 2.2668-0.57002 2.6492-1.913 4.2387-3.9341 4.6565-1.8317 0.37862-3.6118-0.23342-4.4498-1.53-0.11798-0.18254-0.23089-0.3155-0.25091-0.29548-0.02 0.02-0.0364 1.5491-0.0364 3.3979v3.3615h-1.0656c-0.58608 0-1.083-0.0174-1.1044-0.0387zm6.2118-6.7345c1.3157-0.33811 2.1018-1.45 2.3821-3.3693 0.26632-1.8235 0.09785-3.8829-0.41823-5.11-0.44723-1.0636-1.1332-1.6309-2.193-1.8138-0.4475-0.0772-0.5554-0.0766-1.0323 6e-3 -0.68524 0.11825-1.1084 0.34184-1.5593 0.82384-0.69055 0.7382-1.0242 1.7433-1.1646 3.5078-0.17922 2.253 0.30118 4.3004 1.2283 5.2347 0.67989 0.68518 1.7786 0.97253 2.757 0.72108zm-16.568 1.8549c-1.4546-0.22483-2.6182-0.80264-3.5225-1.7492-1.1068-1.1585-1.6603-2.5406-1.7952-4.4827-0.17874-2.5725 0.4776-4.6698 1.914-6.1161 1.0107-1.0176 2.2071-1.5536 3.7479-1.6792 1.9642-0.1601 3.4298 0.33846 4.5804 1.5581 1.1446 1.2133 1.7571 2.8851 1.718 4.6889l-0.0164 0.75407-9.5754 0.0297 0.0275 0.88605c0.0738 2.3758 0.97669 3.6747 2.9088 4.1847 0.39122 0.10327 0.64163 0.12632 1.3789 0.12695 1.1221 1e-3 1.9222-0.15832 3.1387-0.62487 0.3126-0.11989 1.3095-0.56868 1.4676-0.66071 0.024-0.014 0.0436 0.47041 0.0436 1.0764v1.1017l-0.68296 0.24319c-1.8881 0.67232-3.7637 0.90548-5.3328 0.66295zm4.4226-8.8204c0.0565-0.14719-0.2091-1.0492-0.45572-1.5478-0.30482-0.61625-0.89435-1.2403-1.3913-1.4728-0.49369-0.23096-1.0509-0.3454-1.6746-0.34392-1.0917 3e-3 -1.8802 0.32225-2.6156 1.0603-0.63356 0.6359-0.99525 1.3189-1.1315 2.1368l-0.0412 0.24702h3.6397c3.0292 0 3.6448-0.0134 3.6702-0.0797zm23.506 8.8225c-0.93232-0.16972-1.621-0.52838-2.2684-1.1814-0.77138-0.77812-1.1165-1.6887-1.1255-2.9697-6e-3 -0.84756 0.12705-1.4964 0.44016-2.1473 0.18858-0.39196 0.33124-0.58536 0.70853-0.96047 0.67822-0.67432 1.4302-1.047 2.652-1.3144 0.55827-0.12217 0.80109-0.13633 2.848-0.16609l2.2378-0.0325 0.0175-0.33517c0.0245-0.47037-0.13587-1.3303-0.31346-1.6807-0.0823-0.16249-0.26941-0.42341-0.41572-0.57982-1.0881-1.1632-4.1262-1.1054-6.5926 0.12562-0.3091 0.15427-0.5772 0.2653-0.59576 0.24674-0.0186-0.0186-0.0338-0.49701-0.0338-1.0632 0-0.75266 0.0195-1.0456 0.0727-1.0897 0.11433-0.0948 1.6974-0.56934 2.3395-0.70133 1.7835-0.3666 3.8405-0.24968 5.0545 0.28732 1.1332 0.50126 2.0082 1.3898 2.3731 2.4098 0.30194 0.84396 0.33196 1.4197 0.33196 6.3672v4.5283h-2.2087v-0.92999c0-0.51149-0.0196-0.92979-0.0436-0.92958-0.024 0-0.10867 0.0983-0.18821 0.21797-0.4634 0.69714-1.3279 1.3805-2.0976 1.658-0.88453 0.31894-2.212 0.41891-3.1924 0.24043zm2.639-1.8828c0.83151-0.21267 1.477-0.65648 1.9787-1.3605 0.59805-0.83916 0.86113-1.7726 0.87015-3.0874l5e-3 -0.69748-1.9181 5e-3c-1.7918 5e-3 -1.9544 0.0142-2.4703 0.139-1.4025 0.33935-2.0975 0.99649-2.2718 2.148-0.1579 1.043 0.25025 2.0617 1.0219 2.5505 0.65529 0.41516 1.8406 0.5439 2.7847 0.30244zm12.967 1.9384c-0.62842-0.12375-0.80504-0.17384-1.1296-0.32036-1.2561-0.56702-1.9504-1.7571-2.1823-3.7406-0.0717-0.61326-0.0883-1.5995-0.0883-5.2457v-4.4904h2.2024l0.0241 4.6935c0.0168 3.2829 0.0447 4.7968 0.0926 5.0373 0.15988 0.80154 0.57394 1.5049 1.0703 1.8183 0.73423 0.46349 2.0795 0.48569 2.9422 0.0486 0.15649-0.0793 0.44119-0.28923 0.63267-0.46649 0.40382-0.37388 0.74212-0.99444 0.9508-1.7442 0.12719-0.45697 0.12998-0.5417 0.1613-4.9114l0.0319-4.4465 2.1796-0.0316v13.487h-2.2087v-1.9445l-0.20234 0.30725c-0.70685 1.0733-1.5791 1.6709-2.7676 1.8964-0.42584 0.0808-1.4128 0.11149-1.709 0.0532zm-65.011-9.2925v-8.9801l1.6129 7.9e-4c0.88712 5.3e-4 1.6395 0.0201 1.672 0.0436s0.21374 0.36965 0.4028 0.76925 0.58751 1.2329 0.88546 1.8518c0.29794 0.61888 0.54171 1.1332 0.54171 1.143 0 0.01 0.26156 0.5584 0.58124 1.2192 0.31968 0.6608 0.58123 1.209 0.58123 1.2183 0 9e-3 0.2187 0.4713 0.486 1.0267 0.26729 0.55544 0.57844 1.2061 0.69143 1.4458 0.11299 0.23976 0.39441 0.82826 0.62538 1.3078 0.23097 0.47952 0.51813 1.0811 0.63814 1.3368 0.43097 0.91847 0.74997 1.5836 1.1708 2.4412l0.42783 0.87185 0.0147-7.308 0.0148-7.308 0.13055-0.0321c0.0718-0.0176 0.65367-0.0246 1.293-0.0156l1.1625 0.0165 0.0294 17.931h-3.3572l-0.11897-0.27609c-0.0654-0.15185-0.38252-0.82141-0.70464-1.4879-0.32212-0.66651-0.58567-1.2194-0.58567-1.2286 0-9e-3 -0.27463-0.58436-0.6103-1.2781-0.33566-0.69373-0.6103-1.2702-0.6103-1.2811s-0.26155-0.56099-0.58123-1.2225c-0.31968-0.66147-0.58124-1.2097-0.58124-1.2182 0-9e-3 -0.27463-0.58313-0.61029-1.2769-0.33567-0.69373-0.6103-1.2686-0.6103-1.2775 0-9e-3 -0.23134-0.49702-0.51409-1.0847-0.28275-0.58765-0.68064-1.4216-0.88421-1.8531-0.549-1.1639-0.5518-1.1692-0.59556-1.1254-0.0223 0.0222-0.0405 3.3186-0.0405 7.3253v7.2848h-2.5574zm-7.5434-17.364 0.0164-0.6539 2.2184-0.0291c1.2201-0.016 2.2299-0.0421 2.2439-0.0581s0.21272-0.60447 0.44159-1.3078c1.5143-4.6531 5.0765-10.386 9.6249-15.49 3.3956-3.8102 7.2215-6.8764 10.844-8.6906 2.3356-1.1697 4.6886-1.9227 7.2054-2.3057 1.2248-0.18638 3.3681-0.18619 4.6499 3.9e-4 1.6345 0.23794 3.0194 0.59074 4.5918 1.1697 1.1472 0.42243 1.8022 0.57627 2.6453 0.62134 0.50112 0.0268 0.72878 0.0611 0.7486 0.11273 0.0445 0.11598-0.0704 0.17276-0.63303 0.31274-1.528 0.38017-2.8816 0.82995-5.638 1.8734-3.2063 1.2138-4.4411 1.7315-6.0739 2.5465-3.0676 1.5312-5.1382 3.1277-7.111 5.4824-1.5093 1.8016-2.4369 3.653-2.8642 5.7169-0.28859 1.3938-0.19132 3.3685 0.24181 4.909 0.21705 0.77194 0.42448 1.2626 1.224 2.895 0.39845 0.81352 0.71138 1.5132 0.69541 1.5548-0.016 0.0416-0.0779 0.0757-0.13759 0.0757-0.0842 0-0.27235-0.33523-0.83989-1.4967-0.40224-0.82318-0.80898-1.6928-0.90386-1.9326-0.8073-2.0401-0.97915-4.5534-0.45306-6.6261 0.27487-1.0829 0.43963-1.5158 0.97347-2.5574 0.78143-1.5247 1.7928-2.8458 3.3235-4.3415 1.1589-1.1323 1.9508-1.7546 3.4434-2.7061 0.92-0.58644 2.9902-1.6596 4.0645-2.107 3.0938-1.2885 6.9864-2.7442 8.5434-3.195 0.28726-0.0832 0.54421-0.17315 0.57101-0.19994 0.0268-0.0268-0.14285-0.0953-0.37699-0.15213-0.23414-0.0569-0.64803-0.18098-0.91975-0.27578-2.8594-0.99762-3.7676-1.2176-6.0739-1.4709-3.0192-0.33162-6.9831 0.5243-10.558 2.2798-3.9927 1.9605-7.9938 5.2554-11.883 9.7854-3.4442 4.0118-6.4287 8.727-8.0699 12.75-0.33489 0.82082-0.90471 2.531-0.90471 2.7154 0 0.11065 0.21234 0.11226 14.669 0.11226 11.665 0 14.681-0.0149 14.729-0.0727 0.0328-0.04 0.17757-0.45191 0.32171-0.91545 0.33223-1.0684 0.60492-1.8184 0.94695-2.6045 2.7207-6.2534 8.1442-13.412 13.624-17.983 4.6079-3.8436 9.494-6.0418 14.327-6.4457 1.4298-0.11947 3.7137 0.0509 5.1842 0.38672 0.69231 0.1581 2.1942 0.60075 2.7575 0.81274 1.3826 0.5203 1.932 0.65467 2.881 0.70458 0.49251 0.0259 0.71787 0.0599 0.73762 0.11141 0.0438 0.11414-0.0667 0.1686-0.63307 0.31195-0.8327 0.21077-1.8552 0.51342-2.7028 0.79999-1.5518 0.52468-4.9147 1.8122-7.062 2.7038-0.9065 0.37639-2.9464 1.3973-3.7053 1.8544-1.7813 1.0729-2.8708 1.9232-4.2045 3.2812-2.307 2.3491-3.5043 4.4607-4.0451 7.134-0.17281 0.85428-0.17082 2.4508 4e-3 3.4977 0.2452 1.4653 0.49565 2.1556 1.5669 4.3188 0.35307 0.713 0.62744 1.3342 0.60969 1.3804-0.0177 0.0462-0.0783 0.0841-0.13458 0.0841-0.0758 0-0.28438-0.36914-0.80422-1.4231-0.99013-2.0075-1.2378-2.6657-1.4874-3.9533-0.50785-2.6199-0.0705-5.272 1.2547-7.6088 0.77897-1.3736 1.7971-2.6564 3.1643-3.9869 1.7646-1.7173 3.2294-2.7178 5.9503-4.0645 2.1313-1.0548 7.2936-3.0716 9.9101-3.8717 0.38361-0.11729 0.71811-0.23248 0.74334-0.25598 0.0252-0.0235-0.2259-0.11342-0.55805-0.19984-0.33215-0.0864-0.95045-0.28619-1.374-0.44394-2.427-0.90395-5.1963-1.4015-7.2973-1.3111-5.484 0.2359-11.107 2.8865-16.361 7.7125-5.0088 4.6007-9.704 11.091-12.148 16.791-0.41912 0.97774-1.1314 3.1081-1.0716 3.2049 0.0392 0.0634 31.123 0.0648 31.223 1e-3 0.0406-0.0257 0.11427-0.27897 0.16379-0.56269 0.12093-0.6929 0.36868-1.6429 0.75761-2.9052 1.3884-4.506 4.6071-9.9336 8.824-14.88 5.252-6.1601 10.63-9.9653 16.307-11.539 3.0304-0.84011 5.6734-0.94284 8.7174-0.33884 0.86721 0.17208 2.2828 0.58121 3.1979 0.92429 1.1937 0.44749 1.7686 0.58402 2.6446 0.62805 0.70171 0.0353 0.75682 0.0464 0.77259 0.15658 0.0149 0.10444-0.0475 0.13451-0.52312 0.25181-1.9273 0.47533-4.2188 1.2746-8.2732 2.8856-2.5656 1.0194-4.1897 1.8093-5.8283 2.8346-2.3508 1.4709-4.4163 3.446-5.8483 5.5922-0.90302 1.3534-1.4041 2.5027-1.7738 4.0686-0.43924 1.8606-0.23144 4.2669 0.53657 6.2133 0.1022 0.259 0.49471 1.0969 0.87225 1.862 0.65496 1.3273 0.76023 1.6313 0.56492 1.6313-0.14521 0-1.5756-2.888-1.8984-3.833-0.4071-1.1917-0.60104-2.412-0.60058-3.7789 1e-3 -2.8574 1.0977-5.4708 3.4036-8.1106 0.69665-0.7975 1.9242-1.9836 2.6576-2.5679 1.4386-1.1461 3.3926-2.2956 5.5739-3.2792 2.0497-0.92424 7.3572-2.925 9.0542-3.4132 0.27042-0.0778 0.49983-0.1659 0.50979-0.19578 0.01-0.0299-0.18513-0.10125-0.43355-0.15858-0.24841-0.0572-0.80476-0.23396-1.2363-0.3926-1.1062-0.40661-1.1661-0.42641-1.9762-0.65292-2.0166-0.56383-4.2494-0.84249-5.8514-0.73026-5.3243 0.373-10.218 2.6183-15.358 7.0465-1.7127 1.4754-4.6739 4.6383-6.4069 6.8434-2.7337 3.4783-5.0726 7.3244-6.486 10.666-0.58307 1.3783-1.353 3.8899-1.5592 5.0858-0.0523 0.3037-0.1056 0.56905-0.11834 0.58968-0.0127 0.0206 0.0181 0.0533 0.0685 0.0727 0.0504 0.0193 9.3878 0.0352 20.75 0.0352h20.658v1.3368h-107.76z" fill-opacity=".97984" stroke-width=".058124"/>
 </g>
</svg>
